<svg width="0" height="0" class="hidden">
  <symbol xmlns="http://www.w3.org/2000/svg" viewBox="0 0 128 128" id="behance">
    <title></title>
    <path d="M53.48 63C58.69 60.82 63 56.6 63 48.6c0-20.17-20.85-19.78-20.85-19.78H5v73.35h37.16s23.16 1.25 23.16-22.87c0-10.13-5.54-14.55-11.84-16.3zM38.76 41.76s9.73-1 9.73 7.77-8.74 8.25-8.74 8.25H22.31l-.08-16zm0 44.39H22.22l.08-16h17.45s8.74-.54 8.74 8.25-9.73 7.74-9.73 7.74zm43.48-54.41h29.33v7.52H82.24zM98 90.65c-14.09 0-13.13-13.25-13.13-13.25l38.13-.07C123 57.26 115.21 46 97.07 46S71.14 59.77 71.14 73.86s6.86 27.86 27.41 27.86 23.87-17.05 23.87-17.05h-14.15s-2 5.98-10.27 5.98zm-1-33.2c10.74 0 11.9 9.33 11.9 11H85.17s1.16-11 11.9-11z"></path>
  </symbol>
  <symbol xmlns="http://www.w3.org/2000/svg" viewBox="0 0 512.001 512.001" id="cancel">
    <path d="M284.286 256.002L506.143 34.144c7.811-7.811 7.811-20.475 0-28.285-7.811-7.81-20.475-7.811-28.285 0L256 227.717 34.143 5.859c-7.811-7.811-20.475-7.811-28.285 0-7.81 7.811-7.811 20.475 0 28.285l221.857 221.857L5.858 477.859c-7.811 7.811-7.811 20.475 0 28.285a19.938 19.938 0 0014.143 5.857 19.94 19.94 0 0014.143-5.857L256 284.287l221.857 221.857c3.905 3.905 9.024 5.857 14.143 5.857s10.237-1.952 14.143-5.857c7.811-7.811 7.811-20.475 0-28.285L284.286 256.002z"></path>
  </symbol>
  <symbol xmlns="http://www.w3.org/2000/svg" fill-rule="evenodd" clip-rule="evenodd" stroke-linejoin="round" stroke-miterlimit="2" viewBox="0 0 512 512" id="dribble">
    <path d="M256 0C114.673 0 0 114.673 0 256s114.673 256 256 256c141.051 0 256-114.673 256-256S397.051 0 256 0zm169.093 118.006c30.541 37.207 48.871 84.685 49.423 136.048-7.219-1.387-79.411-16.102-152.156-6.937-1.664-3.61-3.056-7.501-4.72-11.387-4.444-10.547-9.442-21.376-14.439-31.652 80.523-32.763 117.171-79.964 121.892-86.072zM256 37.76c55.532 0 106.342 20.828 144.937 54.979-3.886 5.55-36.931 49.699-114.673 78.853-35.819-65.803-75.52-119.67-81.628-128 16.379-3.886 33.592-5.832 51.364-5.832zm-93.015 20.547c5.832 7.777 44.703 61.921 81.075 126.336-102.175 27.207-192.415 26.654-202.132 26.654 14.156-67.748 59.97-124.114 121.057-152.99zM37.207 256.276v-6.661c9.441.277 115.507 1.664 224.625-31.099 6.384 12.217 12.216 24.71 17.766 37.208-2.775.834-5.826 1.664-8.607 2.498C158.264 294.595 98.289 393.994 93.292 402.324c-34.704-38.594-56.085-89.958-56.085-146.048zM256 474.793c-50.534 0-97.178-17.213-134.108-46.09 3.886-8.054 48.312-93.568 171.592-136.607.552-.276.834-.276 1.387-.558 30.822 79.688 43.315 146.606 46.648 165.765-26.378 11.382-55.255 17.49-85.519 17.49zm121.892-37.484c-2.222-13.327-13.88-77.189-42.481-155.765 68.583-10.829 128.553 6.942 136.049 9.441-9.436 60.805-44.421 113.285-93.568 146.324z"></path>
  </symbol>
  <symbol xmlns="http://www.w3.org/2000/svg" viewBox="0 0 128 128" id="instagram">
    <title></title>
    <path d="M83 23a22 22 0 0122 22v38a22 22 0 01-22 22H45a22 22 0 01-22-22V45a22 22 0 0122-22h38m0-8H45a30.09 30.09 0 00-30 30v38a30.09 30.09 0 0030 30h38a30.09 30.09 0 0030-30V45a30.09 30.09 0 00-30-30z"></path>
    <path d="M90.14 32a5.73 5.73 0 105.73 5.73A5.73 5.73 0 0090.14 32zM64.27 46.47A17.68 17.68 0 1146.6 64.14a17.7 17.7 0 0117.67-17.67m0-8A25.68 25.68 0 1090 64.14a25.68 25.68 0 00-25.73-25.67z"></path>
  </symbol>
  <symbol xmlns="http://www.w3.org/2000/svg" viewBox="0 0 485 485" id="linkedin">
    <path d="M89.016 189.906h67.507v203.098H89.016zm33.308-27.718h.446c23.55 0 38.195-15.602 38.195-35.102-.445-19.93-14.645-35.09-37.754-35.09-23.106 0-38.211 15.16-38.211 35.09 0 19.5 14.68 35.102 37.324 35.102zm139.074 230.816v-113.43c0-6.086.465-12.117 2.243-16.457 4.886-12.148 15.976-24.691 34.64-24.691 24.438 0 34.196 18.629 34.196 45.918V393H400V276.535c0-62.379-33.309-91.398-77.742-91.398-35.871 0-51.887 19.742-60.86 33.547v.664h-.441c.117-.22.309-.442.441-.664v-28.778h-67.535c.907 19.051 0 203.094 0 203.094h67.535zm0 0"></path>
    <path d="M0 0v485h485V0zm455 455H30V30h425zm0 0"></path>
  </symbol>
  <symbol xmlns="http://www.w3.org/2000/svg" viewBox="0 -47 512 512" id="twitter">
    <path d="M512 55.965c-32.207 1.484-31.504 1.363-35.145 1.668L495.93 3.16s-59.54 21.902-74.633 25.82c-39.64-35.628-98.563-37.203-140.688-11.312-34.496 21.207-53.011 57.625-46.836 100.191C166.637 108.543 110.07 76.72 65.41 23.07L51.285 6.105 40.73 25.488C27.39 49.98 22.96 77.984 28.254 104.34a113.287 113.287 0 0010.976 30.78l-12.117-4.695-1.437 20.246c-1.457 20.566 5.39 44.574 18.32 64.215a114.185 114.185 0 0014.27 17.597l-6.262-.96 7.64 23.199c10.043 30.48 30.903 54.062 57.973 67.172-27.035 11.472-48.875 18.793-84.773 30.601L0 363.293l30.336 16.586c11.566 6.324 52.437 27.445 92.82 33.781 89.766 14.078 190.832 2.613 258.871-58.664 57.309-51.613 76.114-125.031 72.207-201.433-.59-11.567 2.579-22.606 8.922-31.079 12.707-16.964 48.766-66.406 48.844-66.52zm-72.832 48.55c-10.535 14.067-15.813 32.032-14.867 50.579 3.941 77.066-17.028 136.832-62.328 177.629-52.918 47.66-138.274 66.367-234.172 51.324-17.367-2.723-35.317-8.82-50.172-14.91 30.098-10.356 53.34-19.586 90.875-37.352l52.398-24.8-57.851-3.704c-27.711-1.773-50.785-15.203-64.969-37.008a103.763 103.763 0 0022.023-3.671l55.176-15.368-55.636-13.625c-27.036-6.62-42.446-22.797-50.614-35.203-5.363-8.152-8.867-16.504-10.969-24.203 5.579 1.496 12.083 2.563 22.57 3.602l51.497 5.093-40.8-31.828c-29.4-22.93-41.18-57.379-32.544-90.496 91.75 95.164 199.477 88.012 210.32 90.528-2.386-23.184-2.449-23.239-3.074-25.446-13.886-49.09 16.547-74.015 30.274-82.453 28.672-17.621 74.183-20.277 105.707 8.754 6.808 6.266 16.015 8.73 24.633 6.59 7.734-1.922 14.082-3.957 20.296-6.172L434.004 89.32l16.516.012a8240.32 8240.32 0 01-11.352 15.184zm0 0"></path>
  </symbol>
</svg>